<svg viewBox="0 0 35 34" fill="none" xmlns="http://www.w3.org/2000/svg">
  <g clip-path="url(#clip0_490_17782)">
    <path fill-rule="evenodd" clip-rule="evenodd"
      d="M24.4448 13.0795C24.4448 10.9957 23.0336 9.27338 21.8319 8.21154C20.5946 7.11827 18.969 6.80322 17.5259 6.80322L12.0189 6.80322C11.447 6.80322 10.9834 7.25282 10.9834 7.80743C10.9834 8.36203 11.447 8.81163 12.0189 8.81163L17.5259 8.81163C18.707 8.81163 19.7346 9.0754 20.4371 9.69613C21.5067 10.6413 22.3738 11.86 22.3738 13.0795C22.3738 15.2127 21.116 16.5183 20.7364 16.7812V17.0988C21.116 17.3617 22.3738 18.6673 22.3738 20.8005C22.3738 22.02 21.5067 23.2387 20.4371 24.1839C19.7346 24.8046 18.707 25.0684 17.5259 25.0684H12.0189C11.447 25.0684 10.9834 25.518 10.9834 26.0726C10.9834 26.6272 11.447 27.0768 12.0189 27.0768H17.5259C18.969 27.0768 20.5946 26.7617 21.8319 25.6685C23.0336 24.6066 24.4448 22.8843 24.4448 20.8005C24.4448 19.1759 23.9143 17.872 23.3026 16.94C23.9143 16.008 24.4448 14.7041 24.4448 13.0795Z"
      fill="url(#paint0_linear_490_17782)" />
    <path fill-rule="evenodd" clip-rule="evenodd"
      d="M18.2318 13.3305C18.2318 13.0419 18.0617 12.8069 17.7053 12.6097C17.4934 12.4924 17.1858 12.4519 16.6325 12.4519L12.0358 12.4519C11.4639 12.4519 11.0003 12.0023 11.0003 11.4477C11.0003 10.8931 11.4639 10.4435 12.0358 10.4435L16.6325 10.4435C17.1731 10.4435 17.9935 10.4568 18.7317 10.8653C19.4322 11.253 20.3028 12.0374 20.3028 13.3305C20.3028 14.4402 19.6539 15.208 19.0471 15.6582C18.1696 16.3093 17.0839 16.3432 16.3675 16.3432H12.0358C11.4639 16.3432 11.0003 15.8936 11.0003 15.3389C11.0003 14.7843 11.4639 14.3347 12.0358 14.3347L16.3675 14.3347C17.0944 14.3347 17.5201 14.2624 17.7888 14.0631C18.087 13.8418 18.2318 13.6022 18.2318 13.3305Z"
      fill="url(#paint1_linear_490_17782)" />
    <path fill-rule="evenodd" clip-rule="evenodd"
      d="M18.2318 20.8621C18.2318 20.5734 18.0617 20.3385 17.7053 20.1412C17.4934 20.024 17.1858 19.9834 16.6325 19.9834H12.0358C11.4639 19.9834 11.0003 19.5338 11.0003 18.9792C11.0003 18.4246 11.4639 17.975 12.0358 17.975H16.6325C17.1731 17.975 17.9935 17.9883 18.7317 18.3968C19.4322 18.7845 20.3028 19.5689 20.3028 20.8621C20.3028 21.9717 19.6539 22.7396 19.0471 23.1897C18.1696 23.8408 17.0839 23.8747 16.3675 23.8747L12.0358 23.8747C11.4639 23.8747 11.0003 23.4251 11.0003 22.8705C11.0003 22.3159 11.4639 21.8663 12.0358 21.8663L16.3675 21.8663C17.0944 21.8663 17.5201 21.7939 17.7888 21.5946C18.087 21.3733 18.2318 21.1337 18.2318 20.8621Z"
      fill="url(#paint2_linear_490_17782)" />
  </g>
  <defs>
    <linearGradient id="paint0_linear_490_17782" x1="10.7197" y1="6.80322" x2="29.5485" y2="14.2714"
      gradientUnits="userSpaceOnUse">
      <stop stop-color="#2E4CE6" />
      <stop offset="1" stop-color="#2E82E6" />
    </linearGradient>
    <linearGradient id="paint1_linear_490_17782" x1="10.7197" y1="6.80322" x2="29.5485" y2="14.2714"
      gradientUnits="userSpaceOnUse">
      <stop stop-color="#2E4CE6" />
      <stop offset="1" stop-color="#2E82E6" />
    </linearGradient>
    <linearGradient id="paint2_linear_490_17782" x1="10.7197" y1="6.80322" x2="29.5485" y2="14.2714"
      gradientUnits="userSpaceOnUse">
      <stop stop-color="#2E4CE6" />
      <stop offset="1" stop-color="#2E82E6" />
    </linearGradient>
    <clipPath id="clip0_490_17782">
      <rect x="0.313477" y="0.266113" width="34.4729" height="33.4314" rx="8" fill="white" />
    </clipPath>
  </defs>
</svg>
