<svg width="115" height="24" viewBox="0 0 115 24" fill="none" xmlns="http://www.w3.org/2000/svg">
<path fill-rule="evenodd" clip-rule="evenodd" d="M12.0078 24C5.3761 24 0 18.6274 0 12C0 5.37258 5.3761 0 12.0078 0C18.6396 0 24.0157 5.37258 24.0157 12C24.0157 18.6274 18.6396 24 12.0078 24Z" fill="#FE7A20"/>
<path fill-rule="evenodd" clip-rule="evenodd" d="M10.0974 8.85455V17.0545C10.0974 17.878 10.7694 18.5455 11.5984 18.5455C12.4274 18.5455 13.0994 17.878 13.0994 17.0545V8.85455C13.0994 8.03114 12.4274 7.36364 11.5984 7.36364C10.7694 7.36364 10.0974 8.03114 10.0974 8.85455Z" fill="white"/>
<path fill-rule="evenodd" clip-rule="evenodd" d="M5.1853 11.5939V17.0424C5.1853 17.8725 5.85731 18.5455 6.68628 18.5455C7.51525 18.5455 8.18726 17.8725 8.18726 17.0424V11.5939C8.18726 10.7638 7.51525 10.0909 6.68628 10.0909C5.85731 10.0909 5.1853 10.7638 5.1853 11.5939Z" fill="white"/>
<path fill-rule="evenodd" clip-rule="evenodd" d="M15.0098 6.14005V17.0418C15.0098 17.8722 15.6818 18.5455 16.5107 18.5455C17.3397 18.5455 18.0117 17.8722 18.0117 17.0418V6.14005C18.0117 5.30959 17.3397 4.63637 16.5107 4.63637C15.6818 4.63637 15.0098 5.30959 15.0098 6.14005Z" fill="white"/>
<path fill-rule="evenodd" clip-rule="evenodd" d="M33.3755 5.30119C33.1252 5.30119 32.886 5.25337 32.6578 5.15774C32.4296 5.06211 32.2309 4.9297 32.0616 4.7605C31.8922 4.5913 31.7597 4.39636 31.6641 4.17567C31.5684 3.95498 31.5205 3.71223 31.5205 3.4474C31.5205 3.18257 31.5684 2.93981 31.6641 2.71912C31.7597 2.49843 31.8922 2.30349 32.0616 2.13429C32.2309 1.9651 32.4296 1.83268 32.6578 1.73705C32.886 1.64142 33.1252 1.5936 33.3755 1.5936C33.8908 1.5936 34.3325 1.77383 34.7005 2.13429C35.0686 2.49475 35.2526 2.93245 35.2526 3.4474C35.2526 3.96234 35.0686 4.40004 34.7005 4.7605C34.3325 5.12096 33.8908 5.30119 33.3755 5.30119ZM31.9401 17.6819V6.86809H34.833V17.6819H31.9401ZM44.8423 17.9246V16.3798C44.5773 16.8359 44.1651 17.2258 43.6057 17.5495C43.0462 17.8731 42.3543 18.035 41.5298 18.035C40.8379 18.035 40.179 17.8915 39.5533 17.6046C38.9276 17.3177 38.3756 16.9205 37.8971 16.4129C37.4186 15.9053 37.0395 15.2984 36.7598 14.5922C36.4801 13.886 36.3402 13.1136 36.3402 12.275C36.3402 11.4364 36.4801 10.664 36.7598 9.95774C37.0395 9.25153 37.4186 8.64464 37.8971 8.13705C38.3756 7.62946 38.9276 7.23223 39.5533 6.94533C40.179 6.65843 40.8379 6.51498 41.5298 6.51498C42.3543 6.51498 43.0462 6.67682 43.6057 7.0005C44.1651 7.32418 44.5773 7.71406 44.8423 8.17016V6.86809H47.7352V22.4488H44.8423V17.9246ZM42.1261 15.3646C42.5088 15.3646 42.8732 15.2948 43.2192 15.155C43.5652 15.0152 43.8707 14.8129 44.1357 14.5481C44.4007 14.2833 44.6141 13.9596 44.7761 13.5771C44.938 13.1945 45.019 12.7605 45.019 12.275C45.019 11.7895 44.938 11.3554 44.7761 10.9729C44.6141 10.5904 44.4007 10.2667 44.1357 10.0019C43.8707 9.73705 43.5652 9.53475 43.2192 9.39498C42.8732 9.25521 42.5088 9.18533 42.1261 9.18533C41.7433 9.18533 41.3789 9.25889 41.0329 9.40602C40.687 9.55314 40.3815 9.75912 40.1165 10.0239C39.8515 10.2888 39.638 10.6125 39.4761 10.995C39.3141 11.3775 39.2331 11.8042 39.2331 12.275C39.2331 12.7458 39.3141 13.1725 39.4761 13.555C39.638 13.9375 39.8515 14.2612 40.1165 14.526C40.3815 14.7908 40.687 14.9968 41.0329 15.1439C41.3789 15.2911 41.7433 15.3646 42.1261 15.3646ZM59.2738 6.51498C60.113 6.51498 60.8822 6.65843 61.5815 6.94533C62.2808 7.23223 62.8845 7.62946 63.3924 8.13705C63.9003 8.64464 64.2978 9.25153 64.5849 9.95774C64.872 10.664 65.0155 11.4364 65.0155 12.275C65.0155 13.1136 64.872 13.886 64.5849 14.5922C64.2978 15.2984 63.9003 15.9053 63.3924 16.4129C62.8845 16.9205 62.2808 17.3177 61.5815 17.6046C60.8822 17.8915 60.113 18.035 59.2738 18.035C58.4347 18.035 57.6654 17.8915 56.9661 17.6046C56.2668 17.3177 55.6632 16.9205 55.1553 16.4129C54.6473 15.9053 54.2498 15.2984 53.9628 14.5922C53.6757 13.886 53.5321 13.1136 53.5321 12.275C53.5321 11.4364 53.6757 10.664 53.9628 9.95774C54.2498 9.25153 54.6473 8.64464 55.1553 8.13705C55.6632 7.62946 56.2668 7.23223 56.9661 6.94533C57.6654 6.65843 58.4347 6.51498 59.2738 6.51498ZM59.2738 15.3646C59.6419 15.3646 59.9989 15.2948 60.3449 15.155C60.6908 15.0152 60.9963 14.8129 61.2613 14.5481C61.5263 14.2833 61.7361 13.9596 61.8907 13.5771C62.0453 13.1945 62.1226 12.7605 62.1226 12.275C62.1226 11.7895 62.0453 11.3554 61.8907 10.9729C61.7361 10.5904 61.5263 10.2667 61.2613 10.0019C60.9963 9.73705 60.6908 9.53475 60.3449 9.39498C59.9989 9.25521 59.6419 9.18533 59.2738 9.18533C58.891 9.18533 58.5304 9.25521 58.1917 9.39498C57.8531 9.53475 57.5513 9.73705 57.2863 10.0019C57.0213 10.2667 56.8115 10.5904 56.6569 10.9729C56.5024 11.3554 56.4251 11.7895 56.4251 12.275C56.4251 12.7605 56.5024 13.1945 56.6569 13.5771C56.8115 13.9596 57.0213 14.2833 57.2863 14.5481C57.5513 14.8129 57.8531 15.0152 58.1917 15.155C58.5304 15.2948 58.891 15.3646 59.2738 15.3646ZM66.2577 6.86809H69.1506V8.17016C69.4156 7.71406 69.8278 7.32418 70.3873 7.0005C70.9467 6.67682 71.6387 6.51498 72.4631 6.51498C73.1551 6.51498 73.8139 6.65843 74.4396 6.94533C75.0653 7.23223 75.6174 7.62946 76.0958 8.13705C76.5743 8.64464 76.9534 9.25153 77.2332 9.95774C77.5129 10.664 77.6527 11.4364 77.6527 12.275C77.6527 13.1136 77.5129 13.886 77.2332 14.5922C76.9534 15.2984 76.5743 15.9053 76.0958 16.4129C75.6174 16.9205 75.0653 17.3177 74.4396 17.6046C73.8139 17.8915 73.1551 18.035 72.4631 18.035C71.6387 18.035 70.9467 17.8731 70.3873 17.5495C69.8278 17.2258 69.4156 16.8359 69.1506 16.3798V17.9246V22.4488H66.2577V6.86809ZM71.8669 15.3646C72.2497 15.3646 72.614 15.2911 72.96 15.1439C73.306 14.9968 73.6115 14.7908 73.8765 14.526C74.1415 14.2612 74.3549 13.9375 74.5169 13.555C74.6788 13.1725 74.7598 12.7458 74.7598 12.275C74.7598 11.8042 74.6788 11.3775 74.5169 10.995C74.3549 10.6125 74.1415 10.2888 73.8765 10.0239C73.6115 9.75912 73.306 9.55314 72.96 9.40602C72.614 9.25889 72.2497 9.18533 71.8669 9.18533C71.4841 9.18533 71.1197 9.25521 70.7738 9.39498C70.4278 9.53475 70.1223 9.73705 69.8573 10.0019C69.5923 10.2667 69.3788 10.5904 69.2169 10.9729C69.0549 11.3554 68.974 11.7895 68.974 12.275C68.974 12.7605 69.0549 13.1945 69.2169 13.5771C69.3788 13.9596 69.5923 14.2833 69.8573 14.5481C70.1223 14.8129 70.4278 15.0152 70.7738 15.155C71.1197 15.2948 71.4841 15.3646 71.8669 15.3646ZM79.8445 9.33981H77.9453V6.86809H79.8445V3.55774H82.7374V6.86809H85.3874V9.33981H82.7374V13.5329C82.7374 13.783 82.7632 14.0148 82.8147 14.2281C82.8663 14.4414 82.9656 14.6216 83.1129 14.7688C83.319 15.0042 83.6134 15.1219 83.9962 15.1219C84.2465 15.1219 84.4452 15.0961 84.5924 15.0446C84.7397 14.9931 84.8795 14.9233 85.012 14.835L85.8291 17.3729C85.4905 17.5348 85.1261 17.6561 84.736 17.7371C84.3458 17.818 83.9152 17.8584 83.4441 17.8584C82.8994 17.8584 82.4099 17.7738 81.9756 17.6046C81.5413 17.4354 81.1769 17.2037 80.8824 16.9095C80.1905 16.2474 79.8445 15.3058 79.8445 14.0846V9.33981ZM88.8159 5.30119C88.5656 5.30119 88.3264 5.25337 88.0982 5.15774C87.87 5.06211 87.6712 4.9297 87.5019 4.7605C87.3326 4.5913 87.2001 4.39636 87.1044 4.17567C87.0087 3.95498 86.9609 3.71223 86.9609 3.4474C86.9609 3.18257 87.0087 2.93981 87.1044 2.71912C87.2001 2.49843 87.3326 2.30349 87.5019 2.13429C87.6712 1.9651 87.87 1.83268 88.0982 1.73705C88.3264 1.64142 88.5656 1.5936 88.8159 1.5936C89.3312 1.5936 89.7728 1.77383 90.1409 2.13429C90.509 2.49475 90.693 2.93245 90.693 3.4474C90.693 3.96234 90.509 4.40004 90.1409 4.7605C89.7728 5.12096 89.3312 5.30119 88.8159 5.30119ZM87.3805 17.6819V6.86809H90.2734V17.6819H87.3805ZM97.5223 6.51498C98.3615 6.51498 99.1307 6.65843 99.83 6.94533C100.529 7.23223 101.133 7.62946 101.641 8.13705C102.149 8.64464 102.546 9.25153 102.833 9.95774C103.12 10.664 103.264 11.4364 103.264 12.275C103.264 13.1136 103.12 13.886 102.833 14.5922C102.546 15.2984 102.149 15.9053 101.641 16.4129C101.133 16.9205 100.529 17.3177 99.83 17.6046C99.1307 17.8915 98.3615 18.035 97.5223 18.035C96.6831 18.035 95.9139 17.8915 95.2146 17.6046C94.5152 17.3177 93.9116 16.9205 93.4037 16.4129C92.8958 15.9053 92.4983 15.2984 92.2112 14.5922C91.9241 13.886 91.7806 13.1136 91.7806 12.275C91.7806 11.4364 91.9241 10.664 92.2112 9.95774C92.4983 9.25153 92.8958 8.64464 93.4037 8.13705C93.9116 7.62946 94.5152 7.23223 95.2146 6.94533C95.9139 6.65843 96.6831 6.51498 97.5223 6.51498ZM97.5223 15.3646C97.8903 15.3646 98.2473 15.2948 98.5933 15.155C98.9393 15.0152 99.2448 14.8129 99.5098 14.5481C99.7748 14.2833 99.9846 13.9596 100.139 13.5771C100.294 13.1945 100.371 12.7605 100.371 12.275C100.371 11.7895 100.294 11.3554 100.139 10.9729C99.9846 10.5904 99.7748 10.2667 99.5098 10.0019C99.2448 9.73705 98.9393 9.53475 98.5933 9.39498C98.2473 9.25521 97.8903 9.18533 97.5223 9.18533C97.1395 9.18533 96.7788 9.25521 96.4402 9.39498C96.1016 9.53475 95.7998 9.73705 95.5348 10.0019C95.2698 10.2667 95.06 10.5904 94.9054 10.9729C94.7508 11.3554 94.6735 11.7895 94.6735 12.275C94.6735 12.7605 94.7508 13.1945 94.9054 13.5771C95.06 13.9596 95.2698 14.2833 95.5348 14.5481C95.7998 14.8129 96.1016 15.0152 96.4402 15.155C96.7788 15.2948 97.1395 15.3646 97.5223 15.3646ZM107.377 8.2805C107.716 7.73613 108.172 7.30579 108.746 6.98947C109.32 6.67314 109.975 6.51498 110.712 6.51498C111.389 6.51498 111.985 6.62533 112.5 6.84602C113.016 7.06671 113.439 7.37935 113.77 7.78395C114.101 8.18855 114.352 8.67406 114.521 9.2405C114.69 9.80694 114.775 10.4359 114.775 11.1274V17.6819H111.882V11.4805C111.882 10.7007 111.709 10.1233 111.363 9.74809C111.017 9.37291 110.513 9.18533 109.85 9.18533C109.453 9.18533 109.103 9.26992 108.801 9.43912C108.5 9.60832 108.242 9.83636 108.028 10.1233C107.815 10.4102 107.653 10.7485 107.543 11.1384C107.432 11.5283 107.377 11.9439 107.377 12.3853V17.6819H104.484V6.86809H107.377V8.2805Z" fill="#192032"/>
</svg>
