<svg width="40" height="40" viewBox="0 0 40 40" fill="none" xmlns="http://www.w3.org/2000/svg">
<path fill-rule="evenodd" clip-rule="evenodd" d="M19.9991 5.48584C25.2704 7.71834 28.8784 12.4709 28.8784 17.9576C28.8784 23.4466 25.2691 28.1991 19.9979 30.4294C14.7278 28.1991 11.1173 23.4466 11.1173 17.9576C11.1173 12.4698 14.7278 7.71722 19.9991 5.48584Z" fill="#002ED9"/>
<path fill-rule="evenodd" clip-rule="evenodd" d="M20.0057 5.48832C21.8324 4.5181 23.9162 4 26.1202 4C33.781 4 40 10.2555 40 17.9613C40 25.6659 33.781 31.9214 26.1202 31.9214C23.9162 31.9214 21.8324 31.4043 20.0045 30.433C24.6115 28.2016 27.7677 23.449 27.7677 17.9613C27.7677 12.4734 24.6126 7.72082 20.0057 5.48832Z" fill="#0099FA"/>
<path fill-rule="evenodd" clip-rule="evenodd" d="M19.9954 30.4319C18.1676 31.4033 16.0827 31.9214 13.8798 31.9214H5.68833L2.00143 35.6299C1.66656 35.9667 1.16259 36.0674 0.724255 35.8851C0.28592 35.7026 0 35.273 0 34.795V5.80166C0 4.80683 0.802131 4 1.79116 4H13.9244C16.1126 4.00671 18.1819 4.52484 19.9965 5.48833C15.3884 7.71971 12.2322 12.4723 12.2322 17.9601C12.2322 23.4491 15.3884 28.2016 19.9954 30.4319Z" fill="#1A4DDE"/>
</svg>
